<?xml version="1.0" encoding="utf-8"?>
<!-- Generator: Adobe Illustrator 24.3.0, SVG Export Plug-In . SVG Version: 6.00 Build 0)  -->
<svg version="1.1" id="Layer_1" xmlns="http://www.w3.org/2000/svg" xmlns:xlink="http://www.w3.org/1999/xlink" x="0px" y="0px"
	 viewBox="0 0 52 52" style="enable-background:new 0 0 52 52;" xml:space="preserve">
<style type="text/css">
	.st0{fill:none;}
	.st1{fill:none;stroke:#7582C8;stroke-width:5.4167;stroke-linecap:round;stroke-linejoin:round;stroke-miterlimit:8.6667;}
	.st2{fill:#7582C8;}
</style>
<path class="st0" d="M0,0h52v52H0V0z"/>
<path class="st1" d="M13,10.8h26c2.4,0,4.3,1.9,4.3,4.3v26c0,2.4-1.9,4.3-4.3,4.3H13c-2.4,0-4.3-1.9-4.3-4.3v-26
	C8.7,12.8,10.6,10.8,13,10.8z"/>
<line class="st1" x1="34.7" y1="6.5" x2="34.7" y2="15.2"/>
<line class="st1" x1="17.3" y1="6.5" x2="17.3" y2="15.2"/>
<line class="st1" x1="8.7" y1="23.8" x2="43.3" y2="23.8"/>
<line class="st1" x1="21.7" y1="34.7" x2="30.3" y2="34.7"/>
<path d="M25.1,12.2c-6.4,0-6.4,10,0,10C31.5,22.2,31.5,12.2,25.1,12.2z"/>
<path class="st2" d="M37.3,24.2c-0.6-0.1-1.1,0-1.7,0.1c5.5-2,10-5.4,6.2-10.6c-2.1-2.9-7.9-3.3-11.3-3.3c-2.6,0-5.1,0.5-7.6,1.1
	c-2.6-0.2-5.3-0.8-7.8-0.6c-3.3,0.2-4.5,2.6-5.6,5.4c-0.8,2.4,0.6,4.7,2.6,5.7c-1.1,0.8-1.8,2.1-1.7,3.9c0.3,4.5,0.4,8.3-0.5,12.7
	c-0.6,2.9,1.4,6.6,4.8,6.3c7.8-0.7,15.6-1.5,23.4-0.9c2.6,0.2,5.1-2.5,5-5c-0.1-4,0-8.7-1.6-12.4C40.9,25,38.9,24.4,37.3,24.2z
	 M20.8,25c-0.2,0.1-0.3,0.2-0.5,0.3c-0.3-1.2-0.9-2.2-1.7-2.8c0.5-0.1,1-0.1,1.5-0.2C20.1,23.2,20.3,24.2,20.8,25z"/>
</svg>
