<?xml version="1.0" encoding="utf-8"?>
<!-- Generator: Adobe Illustrator 24.3.0, SVG Export Plug-In . SVG Version: 6.00 Build 0)  -->
<svg version="1.1" id="Layer_1" xmlns="http://www.w3.org/2000/svg" xmlns:xlink="http://www.w3.org/1999/xlink" x="0px" y="0px"
	 viewBox="0 0 52 52" style="enable-background:new 0 0 52 52;" xml:space="preserve">
<style type="text/css">
	.st0{fill:none;}
	.st1{fill:none;stroke:#7582C8;stroke-width:5.4167;stroke-linecap:round;stroke-linejoin:round;stroke-miterlimit:8.6667;}
	.st2{fill:#7582C8;}
</style>
<path class="st0" d="M0,0h52v52H0V0z"/>
<path class="st1" d="M8.7,26h8.7c1.2,0,2.2,1,2.2,2.2v13c0,1.2-1,2.2-2.2,2.2H8.7c-1.2,0-2.2-1-2.2-2.2v-13C6.5,27,7.5,26,8.7,26z"
	/>
<path class="st1" d="M21.7,17.3h8.7c1.2,0,2.2,1,2.2,2.2v21.7c0,1.2-1,2.2-2.2,2.2h-8.7c-1.2,0-2.2-1-2.2-2.2V19.5
	C19.5,18.3,20.5,17.3,21.7,17.3z"/>
<path class="st1" d="M34.7,8.7h8.7c1.2,0,2.2,1,2.2,2.2v30.3c0,1.2-1,2.2-2.2,2.2h-8.7c-1.2,0-2.2-1-2.2-2.2V10.8
	C32.5,9.6,33.5,8.7,34.7,8.7z"/>
<line class="st1" x1="8.7" y1="43.3" x2="39" y2="43.3"/>
<path d="M15.2,27.5c-6.4,0-6.4,10,0,10C21.6,37.5,21.6,27.5,15.2,27.5z"/>
<path class="st2" d="M43.8,18.5c2.9-5.6-2.5-11.4-8.2-8.5c-1.4,0.7-2.6,2.7-2.5,4.3c0.1,0.5,0.1,1.1,0.1,1.6c-1.7,1-4.2,0.8-6,0.8
	c-2.4,0-4.4,1.1-5.7,3.1c-1.4,2.3-1.7,5-1.5,7.7c-1.8-0.9-3.9-1.6-5.8-1.7c-8.1-0.5-7,8.7-7,14.2c0,6.4,10,6.4,10,0
	c0-0.7,0-1.4-0.1-2.1c0.1-0.1,0.2-0.2,0.2-0.3c0.7,0.8,1.1,2,1.7,2.8c1.8,2.2,4.8,3.5,7.6,2.6c3.2-1,4.5-3.8,4.4-7
	c-0.1-2-0.7-4-0.9-6c-0.1-0.9-0.1-1.7-0.1-2.6c0-0.2,0.1-0.4,0.1-0.5c0.6,0,1-0.1,1.2-0.1c0.8-0.1,1.6-0.2,2.4-0.5
	c0.2,4.3,0.3,8.7,0.2,13c-0.1,6.4,9.9,6.4,10,0c0.1-6.9-0.1-13.7-0.7-20.6C43.6,18.8,43.7,18.6,43.8,18.5z"/>
</svg>
