<?xml version="1.0" encoding="utf-8"?>
<!-- Generator: Adobe Illustrator 24.3.0, SVG Export Plug-In . SVG Version: 6.00 Build 0)  -->
<svg version="1.1" id="Layer_1" xmlns="http://www.w3.org/2000/svg" xmlns:xlink="http://www.w3.org/1999/xlink" x="0px" y="0px"
	 viewBox="0 0 52 52" style="enable-background:new 0 0 52 52;" xml:space="preserve">
<style type="text/css">
	.st0{fill:none;}
	.st1{fill:none;stroke:#7582C8;stroke-width:5.4167;stroke-linecap:round;stroke-linejoin:round;stroke-miterlimit:8.6667;}
	.st2{fill:#7582C8;}
</style>
<path class="st0" d="M0,0h52v52H0V0z"/>
<polyline class="st1" points="10.8,26 6.5,26 26,6.5 45.5,26 41.2,26 "/>
<path class="st1" d="M10.8,26v15.2c0,2.4,1.9,4.3,4.3,4.3h21.7c2.4,0,4.3-1.9,4.3-4.3V26"/>
<rect x="21.7" y="26" class="st1" width="8.7" height="8.7"/>
<path class="st2" d="M36.6,16.7c-3.8-2.9-7.2-8.4-12.5-7.9c-5.1,0.5-9.9,7.9-12.2,11.9C8.9,26,9.8,32.6,12.1,38
	c0.1,0.2,0.2,0.4,0.3,0.6c-1.3,3,0.1,7.2,4.4,7.2c0.9,0,1.7-0.2,2.4-0.6c2.1,0.4,4.5,0.2,6.6,0.2c0,0,0,0,0,0c1.5,0,2.7-0.6,3.5-1.4
	c1.5,1.9,3.6,3,6.7,2.5C48.4,44.6,43.6,22,36.6,16.7z M24.9,35.5c-1.1,0.1-2.8,0.3-2.8,0.6c-0.7-0.8-1.3-3.1-1.5-3.7
	c-0.5-1.6-0.7-3-0.5-4.3c0.4,1.1,0.9,2.2,1.6,3.2c1.4,1.9,2.9,2.7,3.9,4.2C25.4,35.5,25.2,35.5,24.9,35.5z M29.4,23.9
	c1.4,1.1,2.2,2.1,2.7,3.4C30.9,26.3,29.7,25.4,29.4,23.9z"/>
</svg>
