<?xml version="1.0" encoding="utf-8"?>
<!-- Generator: Adobe Illustrator 24.3.0, SVG Export Plug-In . SVG Version: 6.00 Build 0)  -->
<svg version="1.1" id="Layer_1" xmlns="http://www.w3.org/2000/svg" xmlns:xlink="http://www.w3.org/1999/xlink" x="0px" y="0px"
	 viewBox="0 0 32 32" style="enable-background:new 0 0 32 32;" xml:space="preserve">
<style type="text/css">
	.st0{fill:none;}
	.st1{fill:none;stroke:#7582C8;stroke-width:2.6667;stroke-linecap:round;stroke-linejoin:round;stroke-miterlimit:5.3333;}
	.st2{fill:#7582C8;}
</style>
<path class="st0" d="M0,0h32v32H0V0z"/>
<circle class="st1" cx="16" cy="16" r="12"/>
<line class="st1" x1="16" y1="10.7" x2="16" y2="10.7"/>
<polyline class="st1" points="14.7,16 16,16 16,21.3 17.3,21.3 "/>
<path class="st2" d="M20.1,5.6c-1.2-0.5-2.5-0.7-3.7-0.5c-1.7-0.4-3.5-0.1-5.3,1C9,7.5,6.8,9.5,5.6,11.8c-3.1,5.9,0.5,12.5,6.3,14.9
	c6.2,2.6,12.1-1.2,14.5-7.1C28.8,13.5,25.6,8.1,20.1,5.6z"/>
</svg>
